<?xml version="1.0" encoding="utf-8"?>
<svg version="1.1" id="Capa_1" xmlns="http://www.w3.org/2000/svg" xmlns:xlink="http://www.w3.org/1999/xlink"
     x="0px" y="0px" viewBox="0 0 511 1239" preserveAspectRatio="xMidYMid meet" width="100%" height="auto">
    <style type="text/css">
        .st0{fill:#FFFFFF;}
        .st1{fill:#0086FF;}
    </style>
    <g transform="translate(0,-186)">
        <path class="st1" d="M247.27,1032.14c0,6.19,0,12.13,0,18.06c0,12.91-0.41,25.83,0.15,38.72c0.34,7.86-6.63,12.68-14.11,7.95
			c-6.68-4.23-13.29-8.56-20.41-13.16c-3.98,2.74-7.88,5.35-11.71,8.08c-3.87,2.76-7.59,5.73-11.49,8.44
			c-3.11,2.16-6.31,4.21-10.37,1.94c-3.96-2.22-4.16-5.83-4.14-9.75c0.08-14.69,0.04-29.39,0.02-44.08c0-0.96-0.17-1.93-0.3-3.35
			c-6.8,1.23-13.39,2.26-19.91,3.62c-15.06,3.14-29.16-0.21-42.55-6.75c-5.8-2.83-11.22-6.69-16.28-10.76
			c-9.66-7.78-13.11-18.49-13.1-30.58c0.02-22.44-0.01-44.88-0.02-67.32c-0.01-80.62-0.02-161.25-0.03-241.87
			c0-13.02,4.92-21.71,14.32-24.93c3.35-1.15,6.84-1.97,10.32-2.65c30.43-5.93,60.86-11.85,91.3-17.66
			c25.98-4.96,52-9.68,77.98-14.69c25.58-4.93,51.12-10.07,76.68-15.15c5.96-1.19,9.56,1.1,10.81,7.04
			c0.97,4.61,0.64,6.96-1.6,11.35c-0.18,0.08-0.39,0.25-0.55,0.21c-9.42-2.1-18.26,1.54-27.25,3.07
			c-17.9,3.04-35.67,6.82-53.5,10.25c-21.91,4.22-43.82,8.38-65.73,12.6c-23.46,4.52-46.91,9.07-70.37,13.63
			c-12.2,2.37-24.41,4.75-36.59,7.24c-1.87,0.38-3.62,1.37-5.02,1.92c-1.61,3.3-0.35,5.52,1.19,7.67
			c6.69,9.27,16.2,14.29,26.76,17.65c10.27,3.26,20.64,2.82,31.12,0.9c21.97-4.01,43.98-7.76,65.96-11.71
			c23.33-4.19,46.62-8.58,69.95-12.72c21.4-3.79,42.84-7.31,64.25-11.04c16.15-2.82,32.27-5.82,48.43-8.65
			c2.9-0.51,5.89-0.79,8.83-0.77c8.2,0.06,13.34,4.95,13.97,13.09c0.11,1.38,0.03,2.78,0.03,4.17c0,99.49,0.01,198.98-0.05,298.47
			c0,3.11-0.36,6.37-1.35,9.29c-2.06,6.11-6.61,9.73-12.97,10.86c-25.28,4.47-50.59,8.79-75.86,13.34
			c-25.27,4.55-50.49,9.31-75.75,13.95c-5.24,0.96-10.52,1.73-15.77,2.67C250.88,1031.04,249.23,1031.62,247.27,1032.14z
			 M165.32,1028.23c10.99-2.01,21.65-3.96,32.3-5.9c18.27-3.33,36.55-6.64,54.82-10c16.12-2.97,32.21-6.07,48.34-8.98
			c21.57-3.9,43.16-7.66,64.74-11.5c14.2-2.53,28.38-5.2,42.6-7.61c7.5-1.27,8.25-1.88,8.25-9.34
			c0.01-92.53,0.01-185.06,0.02-277.59c0-2.78-0.09-5.57,0.06-8.34c0.17-2.93-0.79-5.01-3.86-6.03
			c-82.28,14.67-164.71,29.36-247.28,44.08C165.32,827.56,165.32,927.76,165.32,1028.23z M145.66,950.18c0-50.72,0-101.2,0-152.06
			c-15.85-0.63-30.33-4.97-43.75-14.29c0,2.98,0,4.96,0,6.94c0.01,43.84,0.14,87.68-0.08,131.53c-0.03,6.44,2.3,11.03,6.96,14.9
			C119.38,945.99,131.67,949.93,145.66,950.18z M145.58,1030.87c0-20.85,0-40.74,0-60.77c-15.95-0.67-30.27-5.35-43.58-14.49
			c0,15.82-0.06,30.68,0.03,45.53c0.03,4.61,0.74,9.25,4.03,12.75C116.62,1025.16,130.06,1029.8,145.58,1030.87z M101.92,714.78
			c0,12.16,0.24,23.44-0.09,34.71c-0.21,7.26,2.77,12.57,8.26,16.78c7.16,5.49,15.12,9.14,24.07,10.71
			c3.86,0.67,7.62,1.67,11.37,0.61c0-15.89,0-31.43,0-46.93C129.4,729.63,115.05,724.76,101.92,714.78z M227.84,1074.22
			c0-13.4,0-26.01,0-39.03c-11.58,2.2-22.76,4.31-33.81,6.41c0,12.1,0,23.64,0,35.9c4.71-3.45,8.82-6.47,12.94-9.47
			c5.09-3.71,6.5-3.74,11.58-0.23C221.47,1069.79,224.36,1071.81,227.84,1074.22z"/>
        <path class="st1" d="M159.46,701.82c-6.73,0.15-9.52-1.91-9.91-6.15c-0.38-4.23,2.03-7.16,6.96-8.04
			c20.6-3.67,41.22-7.22,61.82-10.91c20.98-3.76,41.94-7.63,62.9-11.44c18.25-3.31,36.51-6.61,54.77-9.9
			c21.17-3.82,42.33-7.66,63.51-11.38c2.26-0.4,4.8-0.53,6.95,0.1c2.9,0.86,4.41,4.13,4.12,7.17c-0.31,3.19-2.38,5.61-6.04,6.42
			c-5.98,1.32-11.99,2.47-18.02,3.56c-20.99,3.78-41.98,7.49-62.98,11.24c-23.7,4.23-47.4,8.44-71.09,12.72
			c-20.99,3.79-41.95,7.68-62.94,11.46C179.02,698.55,168.5,700.27,159.46,701.82z"/>
        <path class="st1" d="M323.15,576.93c-2.52-0.35-4.22-0.59-6.05-0.85c-1.06-3.73-2.1-7.09-2.98-10.49
			c-4.11-15.92-14.54-25.35-30.16-29.47c-1.72-0.45-3.46-0.82-5.19-1.23c-2.46-0.58-3.9-2.31-3.8-4.64c0.09-2.17,1.1-4.14,3.65-4.85
			c3.42-0.94,6.82-1.98,10.18-3.14c12.63-4.35,20.11-13.48,23.91-25.97c0.86-2.83,1.68-5.68,2.35-8.56
			c0.67-2.87,2.33-4.84,5.25-4.65c2.7,0.17,3.79,2.51,4.35,4.99c0.74,3.27,1.46,6.54,2.3,9.78c3.64,14.01,13.26,22.02,26.56,26.27
			c2.06,0.66,4.38,0.74,6.25,1.72c1.39,0.72,2.78,2.32,3.2,3.8c0.59,2.08-0.75,3.82-2.8,4.67c-1.08,0.45-2.25,0.73-3.4,0.98
			c-19.07,4.19-28.6,16.97-31.94,35.38C324.48,572.55,323.84,574.37,323.15,576.93z"/>
        <path class="st1" d="M437,604.71c-8.23,1.78-32.86,1.51-38.04-0.49c0-12.55,0-25.32,0-38.01c4.11-1.74,22.92-2.28,37.37-1.05
			c0.47,1.49,1.48,3.24,1.51,5.01c0.15,10.11,0.11,20.22,0.03,30.32C437.85,601.98,437.27,603.46,437,604.71z"/>
        <path class="st1" d="M241.92,619.16c-3.36,0.8-4.98,0.01-5.41-2.81c-1.72-11.28-8.79-17.15-19.51-19.53
			c-1.23-0.27-2.68-1.69-3.12-2.91c-0.67-1.85,0.38-3.46,2.35-4.17c1.3-0.47,2.65-0.82,3.94-1.32c7.91-3.09,13.09-8.63,15.19-16.94
			c0.34-1.34,0.51-2.83,1.24-3.95c0.66-1.02,1.97-2.26,2.97-2.24c0.99,0.02,2.17,1.36,2.84,2.39c0.61,0.94,0.73,2.23,0.95,3.4
			c1.76,9.28,7.29,15.01,16.24,17.85c2.16,0.68,5.67,0.43,5.48,4.25c-0.17,3.46-3.17,3.53-5.57,4.25
			c-8.45,2.55-14.03,7.79-15.84,16.68C243.31,615.8,242.53,617.41,241.92,619.16z"/>
        <path class="st1" d="M446.2,520.36c-8.93,0-17.56,0-26.03,0c-2.07-4.97-2.46-23.29-0.56-30.91c8.82-1.49,17.91-0.39,26.62-0.54
			C448.63,495.26,448.48,515.42,446.2,520.36z"/>
        <path class="st1" d="M318.75,787.13c-1.1,5.07-2.34,11.25-3.77,17.38c-8.24,35.31-16.53,70.62-24.81,105.92
			c-0.22,0.95-0.48,1.91-0.78,2.84c-1.68,5.13-4.43,7.22-8.41,6.43c-5.17-1.03-8.99-5.78-8-10.7c1.69-8.5,3.74-16.93,5.7-25.38
			c7.81-33.59,15.65-67.17,23.46-100.75c1.42-6.08,3.8-7.98,9.36-7.3C316.21,776.15,319,780.14,318.75,787.13z"/>
        <path class="st1" d="M223.2,858.33c10.36,9.27,20.28,18.1,30.14,27.01c1.75,1.58,3.48,3.28,4.8,5.21
			c3.17,4.65,2.94,7.71-0.44,11.16c-3.12,3.19-8.05,3.84-11.95,1.44c-1.51-0.93-2.88-2.11-4.2-3.3
			c-11.05-9.97-22.07-19.96-33.09-29.96c-0.88-0.8-1.7-1.67-2.52-2.53c-5.62-5.93-5.92-8.5-0.6-14.8
			c7.81-9.24,15.89-18.25,23.92-27.3c5.8-6.52,11.57-13.08,17.61-19.37c3.92-4.09,8.01-4.03,12.01-0.44
			c3.25,2.92,3.87,5.76,1.33,9.41c-2.59,3.73-5.61,7.18-8.57,10.63C242.33,836.3,232.96,847.07,223.2,858.33z"/>
        <path class="st1" d="M365.61,838.72c-8.71-7.7-17.02-15.03-25.29-22.39c-2.81-2.5-5.52-5.12-8.27-7.68
			c-4.17-3.89-3.45-10.97,1.7-15.06c2.8-2.22,6.06-1.74,9.63,1.32c4.81,4.12,9.54,8.34,14.31,12.51
			c8.34,7.3,16.77,14.51,25.01,21.93c5.19,4.68,5.72,7.78,1.58,13.36c-5.17,6.98-10.83,13.62-16.47,20.23
			c-7.58,8.89-15.37,17.59-23.04,26.41c-4.16,4.79-7.45,5.53-11.67,2.5c-4.28-3.07-5.23-8.31-1.79-13.05
			c3.01-4.15,6.57-7.91,9.94-11.79c7.39-8.52,14.82-17.01,22.22-25.52C364.1,840.75,364.66,839.95,365.61,838.72z"/>
    </g>
</svg>
