<?xml version="1.0" encoding="utf-8"?>
<!-- Generator: Adobe Illustrator 25.0.0, SVG Export Plug-In . SVG Version: 6.00 Build 0)  -->
<svg version="1.1" id="Capa_1" xmlns="http://www.w3.org/2000/svg" xmlns:xlink="http://www.w3.org/1999/xlink" x="0px" y="0px"
	 viewBox="0 0 1559.06 1559.06" style="enable-background:new 0 0 1559.06 1559.06;" xml:space="preserve">
<style type="text/css">
	.st0{fill:#FFFFFF;}
	.st1{fill:#0086FF;}
</style>
<g>
	<g>
		<g>
			<path class="st0" d="M563.67,875.42c-28.95,0-52.16,0-77.83,0c0-129.23,0-256.71,0-386.84c7.88-1.25,16.5-3.73,25.15-3.8
				c42.24-0.35,84.55-1.43,126.72,0.32c62.79,2.59,94.39,33.15,98.54,95.69c1.46,22.01-0.28,45.14-5.56,66.52
				c-12.9,52.17-41.19,74.35-94.88,79.39c-7.86,0.74-15.91,0.98-23.5,2.89c-30.44,7.67-47.21,27.51-48.42,59.23
				C562.84,816.34,563.67,843.96,563.67,875.42z M564.99,695.81c24.53-15.74,47.92-29.98,70.47-45.43
				c21.91-15.01,29.84-40.32,22.37-66.27c-6.55-22.78-13.97-26.99-49.5-27.52c-14.09-0.21-28.18-0.03-43.35-0.03
				C564.99,606.26,564.99,650.57,564.99,695.81z"/>
			<g>
				<path class="st0" d="M752.62,577.25c27.98,19.45,49.92,34.7,75.42,52.43c0,77.89,0,160.33,0,245.74c-24.06,0-48.26,0-75.42,0
					C752.62,778.75,752.62,681.28,752.62,577.25z"/>
				<path class="st0" d="M791.7,464.15c23.71-0.97,43.45,16.66,45.31,40.46c1.94,24.82-17.53,46.93-42.31,48.05
					c-24.04,1.09-45.64-20.25-45.55-45.01C749.22,484.16,767.85,465.12,791.7,464.15z"/>
			</g>
			<path class="st0" d="M1102.57,581.39c-25.15,46.65-48.02,89.06-71.21,132.08c29.3,53.07,57.85,104.8,88.53,160.38
				c-31.47,0-59.28,0-89.35,0c-14.01-23.71-28.63-48.44-46.53-78.74c-17.52,29.28-32.61,54.51-48.05,80.31c-25.75,0-50.48,0-81.46,0
				c29.71-54.84,57.6-106.33,85.6-158.01c-24.57-44.53-48.52-87.94-74.98-135.88c33.39,0,61.48,0,91.17,0
				c10.06,16.08,20.3,32.43,32.84,52.46c10.7-19.31,19.36-34.93,29.16-52.6C1044.17,581.39,1070.82,581.39,1102.57,581.39z"/>
			<path class="st0" d="M1201.93,771.42c32,49.2,54.84,49.67,86.63,6.86c23.34,0,46.77,0,72.07,0
				c0.15,35.38-15.28,59.88-42.06,77.18c-58.06,37.51-161.53,24.22-194.14-57.55c-20.04-50.25-21.02-100.66-0.86-150.42
				c30.15-74.42,116.74-106.28,188.57-70.84c34.37,16.96,54,51.77,51.26,90.87c-2.65,37.85-23.99,63.45-64.76,75.48
				c-16.36,4.82-33.78,6.01-50.17,10.74C1232.95,758.2,1218.15,765.14,1201.93,771.42z M1189.69,718.18
				c29.57-11.65,51.8-18.88,72.59-29.04c19.79-9.67,24.94-25.18,17.48-41.79c-7.35-16.35-23.77-24.24-42.58-16.38
				c-11.24,4.7-23.88,13.61-28.89,24.01C1199.72,672.77,1196.65,693.19,1189.69,718.18z"/>
			<path class="st0" d="M1389.15,875.32c0-141.71,0-278.09,0-419.43c27.22,17.9,50.47,33.17,76.32,50.17c0,118.9,0,241.13,0,367.22
				c-13.35,0.71-25.96,1.62-38.59,1.98C1415.25,875.58,1403.61,875.32,1389.15,875.32z"/>
		</g>
		<g>
			<path class="st0" d="M622.63,980.58c-13.81,0-26.4,0-40.52,0c-0.49-6.74-0.71-12.94-1.42-19.08
				c-1.37-11.81-6.82-20.35-18.99-23.9c-11.39-3.32-20.4,0.77-27.56,8.88c-4.14,4.69-7.63,10.53-9.6,16.46
				c-7.95,23.84-7.93,47.93,0.17,71.78c1.62,4.77,4.37,9.34,7.42,13.39c9.16,12.14,23.8,17.09,35.56,12.53
				c11.01-4.27,13.93-11.17,12.78-32.67c-11.63,0-23.47,0-36.69,0c0-12.54,0-22.94,0-34.43c27.13,0,53.84,0,82.92,0
				c-0.02,20.87,3.3,41.76-2.96,62.35c-7.37,24.23-31.9,40.7-61.08,41.8c-47.7,1.8-78.38-23.23-85.17-70.48
				c-3.68-25.62-3.42-51.25,6.1-75.93c16.48-42.72,62.15-61.9,104.31-43.91C616.14,919.41,627,941.51,622.63,980.58z"/>
			<path class="st0" d="M677.5,1097.79c-14.57,0-25.92,0-39.33,0c0.47-66.94-0.69-133.03,0.57-199.1c1.39-0.57,2.77-1.14,4.16-1.71
				c5.09,4.3,9.87,9.07,15.37,12.77c5.23,3.51,11.22,5.9,18.77,9.74c0,16.06,0,33.14,0,53.81c9.04-6.21,15.83-9.7,21.12-14.75
				c10.59-10.11,21.88-8.79,33.76-3.81c25.73,10.79,33.58,39.09,17.11,61.91c-4.05,5.61-8.76,10.75-14.73,18.02
				c8.19,4.48,15.15,8.28,23.26,12.72c0,15.48,0,31.94,0,49.84c-12.25,0-23.97,0-37.9,0c0-15.7,0-31.31,0-50.28
				c-11.73,7.77-20.45,13.54-31.57,20.9c0-14.44,0-26.64,0-39.83c6.75-4.88,14.79-10.08,22.11-16.16
				c6.71-5.57,12.67-13.45,6.04-21.44c-4.24-5.11-12.54-8.63-19.39-9.35c-9.82-1.04-17.25,6.12-18.71,15.69
				c-0.96,6.28-0.61,12.78-0.62,19.18C677.47,1042.72,677.5,1069.51,677.5,1097.79z"/>
			<g>
				<path class="st0" d="M765.99,952.78c13.61,9.46,24.28,16.87,36.68,25.5c0,37.88,0,77.98,0,119.51c-11.7,0-23.47,0-36.68,0
					C765.99,1050.78,765.99,1003.37,765.99,952.78z"/>
				<path class="st0" d="M784.99,897.77c11.53-0.47,21.13,8.1,22.04,19.68c0.94,12.07-8.52,22.82-20.58,23.37
					c-11.69,0.53-22.2-9.85-22.15-21.89C764.34,907.51,773.4,898.25,784.99,897.77z"/>
			</g>
			<path class="st0" d="M931.75,1097.79c-13.12,0-24.44,0-37.43,0c-0.47-4.35-1.4-9.19-1.43-14.03
				c-0.16-23.73-0.03-47.45-0.12-71.18c-0.02-5.11,0.18-10.37-0.91-15.3c-2.34-10.63-10.64-16.87-20.7-16.49
				c-9.84,0.38-18.26,7.49-19.89,17.64c-0.81,5.01-0.43,10.23-0.43,15.36c-0.03,27.48-0.01,54.96-0.01,83.73
				c-13.07,0-24.84,0-37.8,0c0-47.31,0-94.42,0-144.66c12.41,8.21,23.3,15.42,34.06,22.53c8.93-5.99,15.86-10.57,22.71-15.25
				c17.33-11.85,32.64-10.94,48.14,3.19c3.75,3.42,6.93,7.45,11.44,12.37c7.13-5.01,14.28-10.02,21.42-15.05
				c22.08-15.57,49.03-7.32,58.67,18.21c1.78,4.71,3.02,9.94,3.06,14.95c0.26,33.97,0.14,67.93,0.14,103.47
				c-12.52,0-24.28,0-37.76,0c-0.35-4.94-1.05-10.46-1.08-15.98c-0.14-25.65,0.09-51.3-0.19-76.95
				c-0.11-10.19-3.27-18.98-14.49-22.3c-9.25-2.73-19.19,0.02-23.32,8.35c-2.7,5.45-3.75,12.18-3.87,18.37
				c-0.44,23.08-0.18,46.17-0.19,69.25C931.75,1084.27,931.75,1090.54,931.75,1097.79z"/>
			<path class="st0" d="M1158.64,1022.37c-1.08,42.42-22.74,69.52-60.41,74.72c-33.89,4.68-63.9-14.83-73.43-47.79
				c-5.1-17.63-5.35-35.44-0.67-53.09c8.55-32.22,32.93-50.45,66.2-50.1c33.26,0.34,57.29,19.19,65.02,51.62
				C1157.26,1005.76,1157.58,1014.15,1158.64,1022.37z M1061.88,1020.3c2.76,10.97,3.8,22.19,8.37,31.69
				c8.44,17.54,28.85,18.29,37.93,1.28c10.87-20.37,10.97-42.29,0.22-62.79c-8.97-17.11-29.23-16.87-38.04,0.31
				C1065.83,999.62,1064.66,1010.17,1061.88,1020.3z"/>
			<g>
				<path class="st0" d="M1171.58,952.78c13.61,9.46,24.28,16.87,36.68,25.5c0,37.88,0,77.98,0,119.51c-11.7,0-23.47,0-36.68,0
					C1171.58,1050.78,1171.58,1003.37,1171.58,952.78z"/>
				<path class="st0" d="M1190.58,897.77c11.53-0.47,21.13,8.1,22.04,19.68c0.94,12.07-8.52,22.82-20.58,23.37
					c-11.69,0.53-22.2-9.85-22.15-21.89C1169.93,907.51,1178.99,898.25,1190.58,897.77z"/>
			</g>
			<path class="st0" d="M1262.66,1097.79c-14.57,0-25.92,0-39.33,0c0.47-66.94-0.69-133.03,0.57-199.1
				c1.39-0.57,2.77-1.14,4.16-1.71c5.09,4.3,9.87,9.07,15.37,12.77c5.23,3.51,11.22,5.9,18.77,9.74c0,16.06,0,33.14,0,53.81
				c9.04-6.21,15.83-9.7,21.12-14.75c10.59-10.11,21.88-8.79,33.76-3.81c25.73,10.79,33.58,39.09,17.11,61.91
				c-4.05,5.61-8.76,10.75-14.73,18.02c8.19,4.48,15.15,8.28,23.26,12.72c0,15.48,0,31.94,0,49.84c-12.25,0-23.97,0-37.9,0
				c0-15.7,0-31.31,0-50.28c-11.73,7.77-20.45,13.54-31.57,20.9c0-14.44,0-26.64,0-39.83c6.75-4.88,14.79-10.08,22.11-16.16
				c6.71-5.57,12.67-13.45,6.04-21.44c-4.24-5.11-12.54-8.63-19.39-9.35c-9.82-1.04-17.25,6.12-18.71,15.69
				c-0.96,6.28-0.61,12.78-0.62,19.18C1262.63,1042.72,1262.66,1069.51,1262.66,1097.79z"/>
			<path class="st0" d="M1397.37,1047.21c15.56,23.93,26.67,24.15,42.13,3.34c11.35,0,22.75,0,35.05,0
				c0.07,17.21-7.43,29.12-20.45,37.53c-28.23,18.24-78.56,11.78-94.42-27.99c-9.74-24.44-10.22-48.95-0.42-73.15
				c14.66-36.19,56.78-51.69,91.71-34.45c16.71,8.25,26.26,25.18,24.93,44.19c-1.29,18.41-11.67,30.86-31.5,36.71
				c-7.95,2.35-16.43,2.92-24.4,5.22C1412.46,1040.78,1405.26,1044.15,1397.37,1047.21z M1391.42,1021.32
				c14.38-5.67,25.19-9.18,35.3-14.12c9.63-4.7,12.13-12.24,8.5-20.32c-3.57-7.95-11.56-11.79-20.71-7.97
				c-5.47,2.28-11.61,6.62-14.05,11.68C1396.3,999.23,1394.8,1009.17,1391.42,1021.32z"/>
		</g>
	</g>
	<g>
		<path class="st1" d="M247.27,1032.14c0,6.19,0,12.13,0,18.06c0,12.91-0.41,25.83,0.15,38.72c0.34,7.86-6.63,12.68-14.11,7.95
			c-6.68-4.23-13.29-8.56-20.41-13.16c-3.98,2.74-7.88,5.35-11.71,8.08c-3.87,2.76-7.59,5.73-11.49,8.44
			c-3.11,2.16-6.31,4.21-10.37,1.94c-3.96-2.22-4.16-5.83-4.14-9.75c0.08-14.69,0.04-29.39,0.02-44.08c0-0.96-0.17-1.93-0.3-3.35
			c-6.8,1.23-13.39,2.26-19.91,3.62c-15.06,3.14-29.16-0.21-42.55-6.75c-5.8-2.83-11.22-6.69-16.28-10.76
			c-9.66-7.78-13.11-18.49-13.1-30.58c0.02-22.44-0.01-44.88-0.02-67.32c-0.01-80.62-0.02-161.25-0.03-241.87
			c0-13.02,4.92-21.71,14.32-24.93c3.35-1.15,6.84-1.97,10.32-2.65c30.43-5.93,60.86-11.85,91.3-17.66
			c25.98-4.96,52-9.68,77.98-14.69c25.58-4.93,51.12-10.07,76.68-15.15c5.96-1.19,9.56,1.1,10.81,7.04
			c0.97,4.61,0.64,6.96-1.6,11.35c-0.18,0.08-0.39,0.25-0.55,0.21c-9.42-2.1-18.26,1.54-27.25,3.07
			c-17.9,3.04-35.67,6.82-53.5,10.25c-21.91,4.22-43.82,8.38-65.73,12.6c-23.46,4.52-46.91,9.07-70.37,13.63
			c-12.2,2.37-24.41,4.75-36.59,7.24c-1.87,0.38-3.62,1.37-5.02,1.92c-1.61,3.3-0.35,5.52,1.19,7.67
			c6.69,9.27,16.2,14.29,26.76,17.65c10.27,3.26,20.64,2.82,31.12,0.9c21.97-4.01,43.98-7.76,65.96-11.71
			c23.33-4.19,46.62-8.58,69.95-12.72c21.4-3.79,42.84-7.31,64.25-11.04c16.15-2.82,32.27-5.82,48.43-8.65
			c2.9-0.51,5.89-0.79,8.83-0.77c8.2,0.06,13.34,4.95,13.97,13.09c0.11,1.38,0.03,2.78,0.03,4.17c0,99.49,0.01,198.98-0.05,298.47
			c0,3.11-0.36,6.37-1.35,9.29c-2.06,6.11-6.61,9.73-12.97,10.86c-25.28,4.47-50.59,8.79-75.86,13.34
			c-25.27,4.55-50.49,9.31-75.75,13.95c-5.24,0.96-10.52,1.73-15.77,2.67C250.88,1031.04,249.23,1031.62,247.27,1032.14z
			 M165.32,1028.23c10.99-2.01,21.65-3.96,32.3-5.9c18.27-3.33,36.55-6.64,54.82-10c16.12-2.97,32.21-6.07,48.34-8.98
			c21.57-3.9,43.16-7.66,64.74-11.5c14.2-2.53,28.38-5.2,42.6-7.61c7.5-1.27,8.25-1.88,8.25-9.34
			c0.01-92.53,0.01-185.06,0.02-277.59c0-2.78-0.09-5.57,0.06-8.34c0.17-2.93-0.79-5.01-3.86-6.03
			c-82.28,14.67-164.71,29.36-247.28,44.08C165.32,827.56,165.32,927.76,165.32,1028.23z M145.66,950.18c0-50.72,0-101.2,0-152.06
			c-15.85-0.63-30.33-4.97-43.75-14.29c0,2.98,0,4.96,0,6.94c0.01,43.84,0.14,87.68-0.08,131.53c-0.03,6.44,2.3,11.03,6.96,14.9
			C119.38,945.99,131.67,949.93,145.66,950.18z M145.58,1030.87c0-20.85,0-40.74,0-60.77c-15.95-0.67-30.27-5.35-43.58-14.49
			c0,15.82-0.06,30.68,0.03,45.53c0.03,4.61,0.74,9.25,4.03,12.75C116.62,1025.16,130.06,1029.8,145.58,1030.87z M101.92,714.78
			c0,12.16,0.24,23.44-0.09,34.71c-0.21,7.26,2.77,12.57,8.26,16.78c7.16,5.49,15.12,9.14,24.07,10.71
			c3.86,0.67,7.62,1.67,11.37,0.61c0-15.89,0-31.43,0-46.93C129.4,729.63,115.05,724.76,101.92,714.78z M227.84,1074.22
			c0-13.4,0-26.01,0-39.03c-11.58,2.2-22.76,4.31-33.81,6.41c0,12.1,0,23.64,0,35.9c4.71-3.45,8.82-6.47,12.94-9.47
			c5.09-3.71,6.5-3.74,11.58-0.23C221.47,1069.79,224.36,1071.81,227.84,1074.22z"/>
		<path class="st1" d="M159.46,701.82c-6.73,0.15-9.52-1.91-9.91-6.15c-0.38-4.23,2.03-7.16,6.96-8.04
			c20.6-3.67,41.22-7.22,61.82-10.91c20.98-3.76,41.94-7.63,62.9-11.44c18.25-3.31,36.51-6.61,54.77-9.9
			c21.17-3.82,42.33-7.66,63.51-11.38c2.26-0.4,4.8-0.53,6.95,0.1c2.9,0.86,4.41,4.13,4.12,7.17c-0.31,3.19-2.38,5.61-6.04,6.42
			c-5.98,1.32-11.99,2.47-18.02,3.56c-20.99,3.78-41.98,7.49-62.98,11.24c-23.7,4.23-47.4,8.44-71.09,12.72
			c-20.99,3.79-41.95,7.68-62.94,11.46C179.02,698.55,168.5,700.27,159.46,701.82z"/>
		<path class="st1" d="M323.15,576.93c-2.52-0.35-4.22-0.59-6.05-0.85c-1.06-3.73-2.1-7.09-2.98-10.49
			c-4.11-15.92-14.54-25.35-30.16-29.47c-1.72-0.45-3.46-0.82-5.19-1.23c-2.46-0.58-3.9-2.31-3.8-4.64c0.09-2.17,1.1-4.14,3.65-4.85
			c3.42-0.94,6.82-1.98,10.18-3.14c12.63-4.35,20.11-13.48,23.91-25.97c0.86-2.83,1.68-5.68,2.35-8.56
			c0.67-2.87,2.33-4.84,5.25-4.65c2.7,0.17,3.79,2.51,4.35,4.99c0.74,3.27,1.46,6.54,2.3,9.78c3.64,14.01,13.26,22.02,26.56,26.27
			c2.06,0.66,4.38,0.74,6.25,1.72c1.39,0.72,2.78,2.32,3.2,3.8c0.59,2.08-0.75,3.82-2.8,4.67c-1.08,0.45-2.25,0.73-3.4,0.98
			c-19.07,4.19-28.6,16.97-31.94,35.38C324.48,572.55,323.84,574.37,323.15,576.93z"/>
		<path class="st1" d="M437,604.71c-8.23,1.78-32.86,1.51-38.04-0.49c0-12.55,0-25.32,0-38.01c4.11-1.74,22.92-2.28,37.37-1.05
			c0.47,1.49,1.48,3.24,1.51,5.01c0.15,10.11,0.11,20.22,0.03,30.32C437.85,601.98,437.27,603.46,437,604.71z"/>
		<path class="st1" d="M241.92,619.16c-3.36,0.8-4.98,0.01-5.41-2.81c-1.72-11.28-8.79-17.15-19.51-19.53
			c-1.23-0.27-2.68-1.69-3.12-2.91c-0.67-1.85,0.38-3.46,2.35-4.17c1.3-0.47,2.65-0.82,3.94-1.32c7.91-3.09,13.09-8.63,15.19-16.94
			c0.34-1.34,0.51-2.83,1.24-3.95c0.66-1.02,1.97-2.26,2.97-2.24c0.99,0.02,2.17,1.36,2.84,2.39c0.61,0.94,0.73,2.23,0.95,3.4
			c1.76,9.28,7.29,15.01,16.24,17.85c2.16,0.68,5.67,0.43,5.48,4.25c-0.17,3.46-3.17,3.53-5.57,4.25
			c-8.45,2.55-14.03,7.79-15.84,16.68C243.31,615.8,242.53,617.41,241.92,619.16z"/>
		<path class="st1" d="M446.2,520.36c-8.93,0-17.56,0-26.03,0c-2.07-4.97-2.46-23.29-0.56-30.91c8.82-1.49,17.91-0.39,26.62-0.54
			C448.63,495.26,448.48,515.42,446.2,520.36z"/>
		<path class="st1" d="M318.75,787.13c-1.1,5.07-2.34,11.25-3.77,17.38c-8.24,35.31-16.53,70.62-24.81,105.92
			c-0.22,0.95-0.48,1.91-0.78,2.84c-1.68,5.13-4.43,7.22-8.41,6.43c-5.17-1.03-8.99-5.78-8-10.7c1.69-8.5,3.74-16.93,5.7-25.38
			c7.81-33.59,15.65-67.17,23.46-100.75c1.42-6.08,3.8-7.98,9.36-7.3C316.21,776.15,319,780.14,318.75,787.13z"/>
		<path class="st1" d="M223.2,858.33c10.36,9.27,20.28,18.1,30.14,27.01c1.75,1.58,3.48,3.28,4.8,5.21
			c3.17,4.65,2.94,7.71-0.44,11.16c-3.12,3.19-8.05,3.84-11.95,1.44c-1.51-0.93-2.88-2.11-4.2-3.3
			c-11.05-9.97-22.07-19.96-33.09-29.96c-0.88-0.8-1.7-1.67-2.52-2.53c-5.62-5.93-5.92-8.5-0.6-14.8
			c7.81-9.24,15.89-18.25,23.92-27.3c5.8-6.52,11.57-13.08,17.61-19.37c3.92-4.09,8.01-4.03,12.01-0.44
			c3.25,2.92,3.87,5.76,1.33,9.41c-2.59,3.73-5.61,7.18-8.57,10.63C242.33,836.3,232.96,847.07,223.2,858.33z"/>
		<path class="st1" d="M365.61,838.72c-8.71-7.7-17.02-15.03-25.29-22.39c-2.81-2.5-5.52-5.12-8.27-7.68
			c-4.17-3.89-3.45-10.97,1.7-15.06c2.8-2.22,6.06-1.74,9.63,1.32c4.81,4.12,9.54,8.34,14.31,12.51
			c8.34,7.3,16.77,14.51,25.01,21.93c5.19,4.68,5.72,7.78,1.58,13.36c-5.17,6.98-10.83,13.62-16.47,20.23
			c-7.58,8.89-15.37,17.59-23.04,26.41c-4.16,4.79-7.45,5.53-11.67,2.5c-4.28-3.07-5.23-8.31-1.79-13.05
			c3.01-4.15,6.57-7.91,9.94-11.79c7.39-8.52,14.82-17.01,22.22-25.52C364.1,840.75,364.66,839.95,365.61,838.72z"/>
	</g>
</g>
</svg>
